STARTFONT 2.1
FONT -DIGITAL-VWSVT0-Bold-R-Narrow--40-380-75-75-C-120-DEC-DECtech
SIZE 38 75 75
FONTBOUNDINGBOX 12 40 0 -10

STARTPROPERTIES 25
FONTNAME_REGISTRY ""
FAMILY_NAME "VWSVT0"
FOUNDRY_NAME "DIGITAL"
WEIGHT_NAME "Bold"
SETWIDTH_NAME "Narrow"
SLANT "R"
ADD_STYLE_NAME ""
PIXEL_SIZE 40
POINT_SIZE 380
RESOLUTION_X 75
RESOLUTION_Y 75
SPACING "C"
AVERAGE_WIDTH 120
CHARSET_REGISTRY "DEC"
CHARSET_ENCODING "DECtech"
CHARSET_COLLECTIONS "ASCII ISO8859-1"
FULL_NAME "VWSVT0"
COPYRIGHT "Copyright ©1990 by Digital Equipment Corporation"
CAP_HEIGHT 21
X_HEIGHT 16
WEIGHT 10
QUAD_WIDTH 12
DEFAULT_CHAR 0
FONT_DESCENT 10
FONT_ASCENT 30
ENDPROPERTIES

CHARS 180

STARTCHAR char_0x0020
ENCODING 32
SWIDTH 1122 0
DWIDTH 12 0
BBX 12 40 0 -10
BITMAP
0000
0000
0000
0000
0000
0000
0000
0000
0000
0000
0000
0000
0000
0000
0000
0000
0000
0000
0000
0000
0000
0000
0000
0000
0000
0000
0000
0000
0000
0000
0000
0000
0000
0000
0000
0000
0000
0000
0000
0000
ENDCHAR

STARTCHAR char_0x0021
ENCODING 33
SWIDTH 1122 0
DWIDTH 12 0
BBX 12 40 0 -10
BITMAP
0000
0000
0000
0000
0000
0000
0000
0000
0F00
0F00
0F00
0F00
0F00
0F00
0F00
0F00
0F00
0F00
0F00
0F00
0F00
0F00
0F00
0600
0000
0000
0600
0F00
0F00
0600
0000
0000
0000
0000
0000
0000
0000
0000
0000
0000
ENDCHAR

STARTCHAR char_0x0022
ENCODING 34
SWIDTH 1122 0
DWIDTH 12 0
BBX 12 40 0 -10
BITMAP
0000
0000
79E0
79E0
79E0
79E0
79E0
39C0
0000
0000
0000
0000
0000
0000
0000
0000
0000
0000
0000
0000
0000
0000
0000
0000
0000
0000
0000
0000
0000
0000
0000
0000
0000
0000
0000
0000
0000
0000
0000
0000
ENDCHAR

STARTCHAR char_0x0023
ENCODING 35
SWIDTH 1122 0
DWIDTH 12 0
BBX 12 40 0 -10
BITMAP
0000
0000
0000
0000
0000
0000
0000
0000
0000
0000
1980
1980
1980
1980
7FE0
7FE0
7FE0
7FE0
1980
1980
1980
1980
7FE0
7FE0
7FE0
7FE0
1980
1980
1980
1980
0000
0000
0000
0000
0000
0000
0000
0000
0000
0000
ENDCHAR

STARTCHAR char_0x0024
ENCODING 36
SWIDTH 1122 0
DWIDTH 12 0
BBX 12 40 0 -10
BITMAP
0000
0000
0000
0000
0000
0000
0000
0000
0600
0600
0600
0600
3FC0
7FE0
79E0
79E0
7800
7800
7FC0
3FE0
01E0
01E0
79E0
79E0
7FE0
3FC0
0600
0600
0600
0600
0000
0000
0000
0000
0000
0000
0000
0000
0000
0000
ENDCHAR

STARTCHAR char_0x0025
ENCODING 37
SWIDTH 1122 0
DWIDTH 12 0
BBX 12 40 0 -10
BITMAP
0000
0000
0000
0000
0000
0000
0000
0000
3060
7860
78E0
30E0
01E0
01E0
03C0
03C0
0780
0780
0F00
0F00
1E00
1E00
3C00
3C00
7800
7800
70C0
71E0
61E0
60C0
0000
0000
0000
0000
0000
0000
0000
0000
0000
0000
ENDCHAR

STARTCHAR char_0x0026
ENCODING 38
SWIDTH 1122 0
DWIDTH 12 0
BBX 12 40 0 -10
BITMAP
0000
0000
0000
0000
0000
0000
0000
0000
0FC0
1FE0
19E0
19E0
19E0
19E0
19E0
19E0
1FE0
1FC0
39F0
79F0
79F0
79F0
79E0
79E0
79E0
79E0
7FE0
7FE0
7FE0
3FE0
0000
0000
0000
0000
0000
0000
0000
0000
0000
0000
ENDCHAR

STARTCHAR char_0x0027
ENCODING 39
SWIDTH 1122 0
DWIDTH 12 0
BBX 12 40 0 -10
BITMAP
0000
0000
0380
0380
0780
0780
0F00
0F00
0E00
0E00
0000
0000
0000
0000
0000
0000
0000
0000
0000
0000
0000
0000
0000
0000
0000
0000
0000
0000
0000
0000
0000
0000
0000
0000
0000
0000
0000
0000
0000
0000
ENDCHAR

STARTCHAR char_0x0028
ENCODING 40
SWIDTH 1122 0
DWIDTH 12 0
BBX 12 40 0 -10
BITMAP
0000
0000
0000
0000
0000
0000
03C0
0780
0F00
0F00
1E00
1E00
3C00
3C00
3C00
3C00
3C00
3C00
3C00
3C00
3C00
3C00
3C00
3C00
3C00
3C00
1E00
1E00
0F00
0F00
0780
03C0
0000
0000
0000
0000
0000
0000
0000
0000
ENDCHAR

STARTCHAR char_0x0029
ENCODING 41
SWIDTH 1122 0
DWIDTH 12 0
BBX 12 40 0 -10
BITMAP
0000
0000
0000
0000
0000
0000
3C00
1E00
0F00
0F00
0780
0780
03C0
03C0
03C0
03C0
03C0
03C0
03C0
03C0
03C0
03C0
03C0
03C0
03C0
03C0
0780
0780
0F00
0F00
1E00
3C00
0000
0000
0000
0000
0000
0000
0000
0000
ENDCHAR

STARTCHAR char_0x002A
ENCODING 42
SWIDTH 1122 0
DWIDTH 12 0
BBX 12 40 0 -10
BITMAP
0000
0000
0000
0000
0000
0000
0000
0000
0600
0600
2640
2640
1680
1680
0F00
0F00
7FE0
7FE0
7FE0
7FE0
0F00
0F00
1680
1680
2640
2640
0600
0600
0000
0000
0000
0000
0000
0000
0000
0000
0000
0000
0000
0000
ENDCHAR

STARTCHAR char_0x002B
ENCODING 43
SWIDTH 1122 0
DWIDTH 12 0
BBX 12 40 0 -10
BITMAP
0000
0000
0000
0000
0000
0000
0000
0000
0000
0000
0F00
0F00
0F00
0F00
0F00
0F00
3FC0
3FC0
3FC0
3FC0
0F00
0F00
0F00
0F00
0F00
0F00
0000
0000
0000
0000
0000
0000
0000
0000
0000
0000
0000
0000
0000
0000
ENDCHAR

STARTCHAR char_0x002C
ENCODING 44
SWIDTH 1122 0
DWIDTH 12 0
BBX 12 40 0 -10
BITMAP
0000
0000
0000
0000
0000
0000
0000
0000
0000
0000
0000
0000
0000
0000
0000
0000
0000
0000
0000
0000
0000
0000
0000
0000
0000
0000
0600
0F00
0F00
0700
1F00
1E00
0000
0000
0000
0000
0000
0000
0000
0000
ENDCHAR

STARTCHAR char_0x002D
ENCODING 45
SWIDTH 1122 0
DWIDTH 12 0
BBX 12 40 0 -10
BITMAP
0000
0000
0000
0000
0000
0000
0000
0000
0000
0000
0000
0000
0000
0000
0000
0000
7FE0
7FE0
7FE0
7FE0
0000
0000
0000
0000
0000
0000
0000
0000
0000
0000
0000
0000
0000
0000
0000
0000
0000
0000
0000
0000
ENDCHAR

STARTCHAR char_0x002E
ENCODING 46
SWIDTH 1122 0
DWIDTH 12 0
BBX 12 40 0 -10
BITMAP
0000
0000
0000
0000
0000
0000
0000
0000
0000
0000
0000
0000
0000
0000
0000
0000
0000
0000
0000
0000
0000
0000
0000
0000
0000
0000
0600
0F00
0F00
0600
0000
0000
0000
0000
0000
0000
0000
0000
0000
0000
ENDCHAR

STARTCHAR char_0x002F
ENCODING 47
SWIDTH 1122 0
DWIDTH 12 0
BBX 12 40 0 -10
BITMAP
0000
0000
0000
0000
0000
0000
0000
0000
0070
0070
00F0
00F0
01F0
01F0
03E0
03E0
07C0
07C0
0F80
0F80
1F00
1F00
3E00
3E00
7C00
7C00
7800
7800
7000
7000
0000
0000
0000
0000
0000
0000
0000
0000
0000
0000
ENDCHAR

STARTCHAR char_0x0030
ENCODING 48
SWIDTH 1122 0
DWIDTH 12 0
BBX 12 40 0 -10
BITMAP
0000
0000
0000
0000
0000
0000
0000
0000
0F00
1F80
39C0
79E0
79E0
79E0
79E0
79E0
79E0
79E0
79E0
79E0
79E0
79E0
79E0
79E0
79E0
79E0
79E0
39C0
1F80
0F00
0000
0000
0000
0000
0000
0000
0000
0000
0000
0000
ENDCHAR

STARTCHAR char_0x0031
ENCODING 49
SWIDTH 1122 0
DWIDTH 12 0
BBX 12 40 0 -10
BITMAP
0000
0000
0000
0000
0000
0000
0000
0000
0380
0380
0780
0780
0F80
0F80
1F80
1F80
0780
0780
0780
0780
0780
0780
0780
0780
0780
0780
0780
0780
1FE0
1FE0
0000
0000
0000
0000
0000
0000
0000
0000
0000
0000
ENDCHAR

STARTCHAR char_0x0032
ENCODING 50
SWIDTH 1122 0
DWIDTH 12 0
BBX 12 40 0 -10
BITMAP
0000
0000
0000
0000
0000
0000
0000
0000
3FC0
7FE0
79E0
79E0
79E0
79E0
01E0
01E0
03E0
07E0
0FC0
1F80
3F00
7E00
7C00
7800
7800
7800
7800
7800
7FE0
7FE0
0000
0000
0000
0000
0000
0000
0000
0000
0000
0000
ENDCHAR

STARTCHAR char_0x0033
ENCODING 51
SWIDTH 1122 0
DWIDTH 12 0
BBX 12 40 0 -10
BITMAP
0000
0000
0000
0000
0000
0000
0000
0000
3FC0
7FE0
79E0
79E0
79E0
79E0
01E0
01E0
01E0
01E0
07C0
07C0
01E0
01E0
01E0
01E0
79E0
79E0
79E0
79E0
7FE0
3FC0
0000
0000
0000
0000
0000
0000
0000
0000
0000
0000
ENDCHAR

STARTCHAR char_0x0034
ENCODING 52
SWIDTH 1122 0
DWIDTH 12 0
BBX 12 40 0 -10
BITMAP
0000
0000
0000
0000
0000
0000
0000
0000
01E0
01E0
03E0
03E0
07E0
07E0
0FE0
0FE0
1FE0
1FE0
3DE0
3DE0
79E0
79E0
71E0
71E0
7FE0
7FE0
01E0
01E0
01E0
01E0
0000
0000
0000
0000
0000
0000
0000
0000
0000
0000
ENDCHAR

STARTCHAR char_0x0035
ENCODING 53
SWIDTH 1122 0
DWIDTH 12 0
BBX 12 40 0 -10
BITMAP
0000
0000
0000
0000
0000
0000
0000
0000
7FE0
7FE0
7800
7800
7800
7800
7800
7800
7FC0
7FE0
01E0
01E0
01E0
01E0
01E0
01E0
79E0
79E0
79E0
79E0
7FE0
3FC0
0000
0000
0000
0000
0000
0000
0000
0000
0000
0000
ENDCHAR

STARTCHAR char_0x0036
ENCODING 54
SWIDTH 1122 0
DWIDTH 12 0
BBX 12 40 0 -10
BITMAP
0000
0000
0000
0000
0000
0000
0000
0000
3FC0
7FE0
79E0
79E0
79E0
79E0
7800
7800
7FC0
7FE0
79E0
79E0
79E0
79E0
79E0
79E0
79E0
79E0
79E0
79E0
7FE0
3FC0
0000
0000
0000
0000
0000
0000
0000
0000
0000
0000
ENDCHAR

STARTCHAR char_0x0037
ENCODING 55
SWIDTH 1122 0
DWIDTH 12 0
BBX 12 40 0 -10
BITMAP
0000
0000
0000
0000
0000
0000
0000
0000
7FE0
7FE0
79E0
79E0
79E0
79E0
01E0
01E0
03C0
03C0
0780
0780
0F00
0F00
1E00
1E00
1E00
1E00
1E00
1E00
1E00
1E00
0000
0000
0000
0000
0000
0000
0000
0000
0000
0000
ENDCHAR

STARTCHAR char_0x0038
ENCODING 56
SWIDTH 1122 0
DWIDTH 12 0
BBX 12 40 0 -10
BITMAP
0000
0000
0000
0000
0000
0000
0000
0000
3FC0
7FE0
79E0
79E0
79E0
79E0
79E0
79E0
79E0
79E0
3FC0
3FC0
79E0
79E0
79E0
79E0
79E0
79E0
79E0
79E0
7FE0
3FC0
0000
0000
0000
0000
0000
0000
0000
0000
0000
0000
ENDCHAR

STARTCHAR char_0x0039
ENCODING 57
SWIDTH 1122 0
DWIDTH 12 0
BBX 12 40 0 -10
BITMAP
0000
0000
0000
0000
0000
0000
0000
0000
3FC0
7FE0
79E0
79E0
79E0
79E0
79E0
79E0
79E0
79E0
79E0
79E0
7FE0
3FE0
01E0
01E0
79E0
79E0
79E0
79E0
7FE0
3FC0
0000
0000
0000
0000
0000
0000
0000
0000
0000
0000
ENDCHAR

STARTCHAR char_0x003A
ENCODING 58
SWIDTH 1122 0
DWIDTH 12 0
BBX 12 40 0 -10
BITMAP
0000
0000
0000
0000
0000
0000
0000
0000
0000
0000
0000
0000
0000
0000
0600
0F00
0F00
0600
0000
0000
0000
0000
0000
0000
0000
0000
0600
0F00
0F00
0600
0000
0000
0000
0000
0000
0000
0000
0000
0000
0000
ENDCHAR

STARTCHAR char_0x003B
ENCODING 59
SWIDTH 1122 0
DWIDTH 12 0
BBX 12 40 0 -10
BITMAP
0000
0000
0000
0000
0000
0000
0000
0000
0000
0000
0000
0000
0000
0000
0600
0F00
0F00
0600
0000
0000
0000
0000
0000
0000
0000
0000
0600
0F00
0F00
0700
1F00
1E00
0000
0000
0000
0000
0000
0000
0000
0000
ENDCHAR

STARTCHAR char_0x003C
ENCODING 60
SWIDTH 1122 0
DWIDTH 12 0
BBX 12 40 0 -10
BITMAP
0000
0000
0000
0000
0000
0000
0000
0000
03C0
03C0
0780
0780
0F00
0F00
1E00
1E00
3C00
3C00
3C00
3C00
1E00
1E00
0F00
0F00
0780
0780
03C0
03C0
0000
0000
0000
0000
0000
0000
0000
0000
0000
0000
0000
0000
ENDCHAR

STARTCHAR char_0x003D
ENCODING 61
SWIDTH 1122 0
DWIDTH 12 0
BBX 12 40 0 -10
BITMAP
0000
0000
0000
0000
0000
0000
0000
0000
0000
0000
0000
0000
7FE0
7FE0
7FE0
7FE0
0000
0000
7FE0
7FE0
7FE0
7FE0
0000
0000
0000
0000
0000
0000
0000
0000
0000
0000
0000
0000
0000
0000
0000
0000
0000
0000
ENDCHAR

STARTCHAR char_0x003E
ENCODING 62
SWIDTH 1122 0
DWIDTH 12 0
BBX 12 40 0 -10
BITMAP
0000
0000
0000
0000
0000
0000
0000
0000
3C00
3C00
1E00
1E00
0F00
0F00
0780
0780
03C0
03C0
03C0
03C0
0780
0780
0F00
0F00
1E00
1E00
3C00
3C00
0000
0000
0000
0000
0000
0000
0000
0000
0000
0000
0000
0000
ENDCHAR

STARTCHAR char_0x003F
ENCODING 63
SWIDTH 1122 0
DWIDTH 12 0
BBX 12 40 0 -10
BITMAP
0000
0000
0000
0000
0000
0000
0000
0000
3FC0
7FE0
79E0
79E0
79E0
79E0
01E0
01E0
01E0
03E0
07C0
0F80
1F00
1E00
1E00
0C00
0000
0000
0C00
1E00
1E00
0C00
0000
0000
0000
0000
0000
0000
0000
0000
0000
0000
ENDCHAR

STARTCHAR char_0x0040
ENCODING 64
SWIDTH 1122 0
DWIDTH 12 0
BBX 12 40 0 -10
BITMAP
0000
0000
0000
0000
0000
0000
0000
0000
3FC0
7FE0
79E0
79E0
79E0
79E0
79E0
7BE0
7FE0
7FE0
7FE0
7FE0
7FE0
7FE0
7BC0
7980
7800
7800
7800
7800
7F80
3F80
0000
0000
0000
0000
0000
0000
0000
0000
0000
0000
ENDCHAR

STARTCHAR char_0x0041
ENCODING 65
SWIDTH 1122 0
DWIDTH 12 0
BBX 12 40 0 -10
BITMAP
0000
0000
0000
0000
0000
0000
0000
0000
0600
0600
0F00
0F00
1F80
1F80
39C0
39C0
79E0
79E0
79E0
79E0
7FE0
7FE0
79E0
79E0
79E0
79E0
79E0
79E0
79E0
79E0
0000
0000
0000
0000
0000
0000
0000
0000
0000
0000
ENDCHAR

STARTCHAR char_0x0042
ENCODING 66
SWIDTH 1122 0
DWIDTH 12 0
BBX 12 40 0 -10
BITMAP
0000
0000
0000
0000
0000
0000
0000
0000
7FC0
7FE0
79E0
79E0
79E0
79E0
79E0
79E0
79E0
79E0
7FC0
7FC0
79E0
79E0
79E0
79E0
79E0
79E0
79E0
79E0
7FE0
7FC0
0000
0000
0000
0000
0000
0000
0000
0000
0000
0000
ENDCHAR

STARTCHAR char_0x0043
ENCODING 67
SWIDTH 1122 0
DWIDTH 12 0
BBX 12 40 0 -10
BITMAP
0000
0000
0000
0000
0000
0000
0000
0000
3FC0
7FE0
79E0
79E0
79E0
79E0
7800
7800
7800
7800
7800
7800
7800
7800
7800
7800
79E0
79E0
79E0
79E0
7FE0
3FC0
0000
0000
0000
0000
0000
0000
0000
0000
0000
0000
ENDCHAR

STARTCHAR char_0x0044
ENCODING 68
SWIDTH 1122 0
DWIDTH 12 0
BBX 12 40 0 -10
BITMAP
0000
0000
0000
0000
0000
0000
0000
0000
7FC0
7FE0
79E0
79E0
79E0
79E0
79E0
79E0
79E0
79E0
79E0
79E0
79E0
79E0
79E0
79E0
79E0
79E0
79E0
79E0
7FE0
7FC0
0000
0000
0000
0000
0000
0000
0000
0000
0000
0000
ENDCHAR

STARTCHAR char_0x0045
ENCODING 69
SWIDTH 1122 0
DWIDTH 12 0
BBX 12 40 0 -10
BITMAP
0000
0000
0000
0000
0000
0000
0000
0000
7FE0
7FE0
7800
7800
7800
7800
7800
7800
7800
7800
7F80
7F80
7800
7800
7800
7800
7800
7800
7800
7800
7FE0
7FE0
0000
0000
0000
0000
0000
0000
0000
0000
0000
0000
ENDCHAR

STARTCHAR char_0x0046
ENCODING 70
SWIDTH 1122 0
DWIDTH 12 0
BBX 12 40 0 -10
BITMAP
0000
0000
0000
0000
0000
0000
0000
0000
7FE0
7FE0
7800
7800
7800
7800
7800
7800
7800
7800
7F80
7F80
7800
7800
7800
7800
7800
7800
7800
7800
7800
7800
0000
0000
0000
0000
0000
0000
0000
0000
0000
0000
ENDCHAR

STARTCHAR char_0x0047
ENCODING 71
SWIDTH 1122 0
DWIDTH 12 0
BBX 12 40 0 -10
BITMAP
0000
0000
0000
0000
0000
0000
0000
0000
3FC0
7FE0
79E0
79E0
79E0
79E0
7800
7800
7800
7800
79E0
79E0
79E0
79E0
79E0
79E0
79E0
79E0
79E0
79E0
7FE0
3FE0
0000
0000
0000
0000
0000
0000
0000
0000
0000
0000
ENDCHAR

STARTCHAR char_0x0048
ENCODING 72
SWIDTH 1122 0
DWIDTH 12 0
BBX 12 40 0 -10
BITMAP
0000
0000
0000
0000
0000
0000
0000
0000
79E0
79E0
79E0
79E0
79E0
79E0
79E0
79E0
79E0
79E0
7FE0
7FE0
79E0
79E0
79E0
79E0
79E0
79E0
79E0
79E0
79E0
79E0
0000
0000
0000
0000
0000
0000
0000
0000
0000
0000
ENDCHAR

STARTCHAR char_0x0049
ENCODING 73
SWIDTH 1122 0
DWIDTH 12 0
BBX 12 40 0 -10
BITMAP
0000
0000
0000
0000
0000
0000
0000
0000
7FE0
7FE0
0F00
0F00
0F00
0F00
0F00
0F00
0F00
0F00
0F00
0F00
0F00
0F00
0F00
0F00
0F00
0F00
0F00
0F00
7FE0
7FE0
0000
0000
0000
0000
0000
0000
0000
0000
0000
0000
ENDCHAR

STARTCHAR char_0x004A
ENCODING 74
SWIDTH 1122 0
DWIDTH 12 0
BBX 12 40 0 -10
BITMAP
0000
0000
0000
0000
0000
0000
0000
0000
07E0
07E0
01E0
01E0
01E0
01E0
01E0
01E0
01E0
01E0
01E0
01E0
01E0
01E0
01E0
01E0
79E0
79E0
79E0
79E0
7FE0
3FC0
0000
0000
0000
0000
0000
0000
0000
0000
0000
0000
ENDCHAR

STARTCHAR char_0x004B
ENCODING 75
SWIDTH 1122 0
DWIDTH 12 0
BBX 12 40 0 -10
BITMAP
0000
0000
0000
0000
0000
0000
0000
0000
7870
7870
78E0
78E0
79C0
79C0
7B80
7B80
7F00
7F00
7E00
7E00
7F00
7F00
7F80
7F80
7BC0
7BC0
79E0
79E0
78F0
78F0
0000
0000
0000
0000
0000
0000
0000
0000
0000
0000
ENDCHAR

STARTCHAR char_0x004C
ENCODING 76
SWIDTH 1122 0
DWIDTH 12 0
BBX 12 40 0 -10
BITMAP
0000
0000
0000
0000
0000
0000
0000
0000
7800
7800
7800
7800
7800
7800
7800
7800
7800
7800
7800
7800
7800
7800
7800
7800
7800
7800
7800
7800
7FE0
7FE0
0000
0000
0000
0000
0000
0000
0000
0000
0000
0000
ENDCHAR

STARTCHAR char_0x004D
ENCODING 77
SWIDTH 1122 0
DWIDTH 12 0
BBX 12 40 0 -10
BITMAP
0000
0000
0000
0000
0000
0000
0000
0000
6060
6060
70E0
70E0
79E0
79E0
7FE0
7FE0
7FE0
7FE0
7FE0
7FE0
79E0
79E0
79E0
79E0
79E0
79E0
79E0
79E0
79E0
79E0
0000
0000
0000
0000
0000
0000
0000
0000
0000
0000
ENDCHAR

STARTCHAR char_0x004E
ENCODING 78
SWIDTH 1122 0
DWIDTH 12 0
BBX 12 40 0 -10
BITMAP
0000
0000
0000
0000
0000
0000
0000
0000
61E0
61E0
71E0
71E0
79E0
79E0
7DE0
7DE0
7FE0
7FE0
7FE0
7FE0
7FE0
7FE0
7BE0
7BE0
79E0
79E0
78E0
78E0
7860
7860
0000
0000
0000
0000
0000
0000
0000
0000
0000
0000
ENDCHAR

STARTCHAR char_0x004F
ENCODING 79
SWIDTH 1122 0
DWIDTH 12 0
BBX 12 40 0 -10
BITMAP
0000
0000
0000
0000
0000
0000
0000
0000
3FC0
7FE0
79E0
79E0
79E0
79E0
79E0
79E0
79E0
79E0
79E0
79E0
79E0
79E0
79E0
79E0
79E0
79E0
79E0
79E0
7FE0
3FC0
0000
0000
0000
0000
0000
0000
0000
0000
0000
0000
ENDCHAR

STARTCHAR char_0x0050
ENCODING 80
SWIDTH 1122 0
DWIDTH 12 0
BBX 12 40 0 -10
BITMAP
0000
0000
0000
0000
0000
0000
0000
0000
7FC0
7FE0
79E0
79E0
79E0
79E0
79E0
79E0
79E0
79E0
79E0
79E0
79E0
79E0
7FE0
7FC0
7800
7800
7800
7800
7800
7800
0000
0000
0000
0000
0000
0000
0000
0000
0000
0000
ENDCHAR

STARTCHAR char_0x0051
ENCODING 81
SWIDTH 1122 0
DWIDTH 12 0
BBX 12 40 0 -10
BITMAP
0000
0000
0000
0000
0000
0000
0000
0000
3FC0
7FE0
79E0
79E0
79E0
79E0
79E0
79E0
79E0
79E0
79E0
79E0
79E0
79E0
79E0
79E0
79E0
79E0
7FE0
7FE0
7FE0
3FC0
03C0
01E0
0000
0000
0000
0000
0000
0000
0000
0000
ENDCHAR

STARTCHAR char_0x0052
ENCODING 82
SWIDTH 1122 0
DWIDTH 12 0
BBX 12 40 0 -10
BITMAP
0000
0000
0000
0000
0000
0000
0000
0000
7FC0
7FE0
79E0
79E0
79E0
79E0
79E0
79E0
79E0
79E0
7FC0
7FC0
79E0
79E0
79E0
79E0
79E0
79E0
79E0
79E0
79E0
79E0
0000
0000
0000
0000
0000
0000
0000
0000
0000
0000
ENDCHAR

STARTCHAR char_0x0053
ENCODING 83
SWIDTH 1122 0
DWIDTH 12 0
BBX 12 40 0 -10
BITMAP
0000
0000
0000
0000
0000
0000
0000
0000
3FC0
7FE0
79E0
79E0
79E0
79E0
7800
7800
7800
7800
7FC0
3FE0
01E0
01E0
01E0
01E0
79E0
79E0
79E0
79E0
7FE0
3FC0
0000
0000
0000
0000
0000
0000
0000
0000
0000
0000
ENDCHAR

STARTCHAR char_0x0054
ENCODING 84
SWIDTH 1122 0
DWIDTH 12 0
BBX 12 40 0 -10
BITMAP
0000
0000
0000
0000
0000
0000
0000
0000
7FE0
7FE0
0F00
0F00
0F00
0F00
0F00
0F00
0F00
0F00
0F00
0F00
0F00
0F00
0F00
0F00
0F00
0F00
0F00
0F00
0F00
0F00
0000
0000
0000
0000
0000
0000
0000
0000
0000
0000
ENDCHAR

STARTCHAR char_0x0055
ENCODING 85
SWIDTH 1122 0
DWIDTH 12 0
BBX 12 40 0 -10
BITMAP
0000
0000
0000
0000
0000
0000
0000
0000
79E0
79E0
79E0
79E0
79E0
79E0
79E0
79E0
79E0
79E0
79E0
79E0
79E0
79E0
79E0
79E0
79E0
79E0
79E0
79E0
7FE0
3FC0
0000
0000
0000
0000
0000
0000
0000
0000
0000
0000
ENDCHAR

STARTCHAR char_0x0056
ENCODING 86
SWIDTH 1122 0
DWIDTH 12 0
BBX 12 40 0 -10
BITMAP
0000
0000
0000
0000
0000
0000
0000
0000
79E0
79E0
79E0
79E0
79E0
79E0
79E0
79E0
79E0
79E0
79E0
79E0
79E0
79E0
39C0
39C0
1F80
1F80
0F00
0F00
0600
0600
0000
0000
0000
0000
0000
0000
0000
0000
0000
0000
ENDCHAR

STARTCHAR char_0x0057
ENCODING 87
SWIDTH 1122 0
DWIDTH 12 0
BBX 12 40 0 -10
BITMAP
0000
0000
0000
0000
0000
0000
0000
0000
79E0
79E0
79E0
79E0
79E0
79E0
79E0
79E0
79E0
79E0
7FE0
7FE0
7FE0
7FE0
7FE0
7FE0
7FE0
7FE0
7FE0
79E0
70E0
2040
0000
0000
0000
0000
0000
0000
0000
0000
0000
0000
ENDCHAR

STARTCHAR char_0x0058
ENCODING 88
SWIDTH 1122 0
DWIDTH 12 0
BBX 12 40 0 -10
BITMAP
0000
0000
0000
0000
0000
0000
0000
0000
79E0
79E0
79E0
79E0
79E0
79E0
39C0
39C0
1F80
1F80
0F00
0F00
1F80
1F80
39C0
39C0
79E0
79E0
79E0
79E0
79E0
79E0
0000
0000
0000
0000
0000
0000
0000
0000
0000
0000
ENDCHAR

STARTCHAR char_0x0059
ENCODING 89
SWIDTH 1122 0
DWIDTH 12 0
BBX 12 40 0 -10
BITMAP
0000
0000
0000
0000
0000
0000
0000
0000
79E0
79E0
79E0
79E0
79E0
79E0
79E0
79E0
39C0
39C0
1F80
1F80
0F00
0F00
0F00
0F00
0F00
0F00
0F00
0F00
0F00
0F00
0000
0000
0000
0000
0000
0000
0000
0000
0000
0000
ENDCHAR

STARTCHAR char_0x005A
ENCODING 90
SWIDTH 1122 0
DWIDTH 12 0
BBX 12 40 0 -10
BITMAP
0000
0000
0000
0000
0000
0000
0000
0000
7FE0
7FE0
01E0
01E0
03E0
03E0
07C0
07C0
0F80
0F80
1F00
1F00
3E00
3E00
7C00
7C00
7800
7800
7000
7000
7FE0
7FE0
0000
0000
0000
0000
0000
0000
0000
0000
0000
0000
ENDCHAR

STARTCHAR char_0x005B
ENCODING 91
SWIDTH 1122 0
DWIDTH 12 0
BBX 12 40 0 -10
BITMAP
0000
0000
0000
0000
0000
0000
3FC0
3FC0
3C00
3C00
3C00
3C00
3C00
3C00
3C00
3C00
3C00
3C00
3C00
3C00
3C00
3C00
3C00
3C00
3C00
3C00
3C00
3C00
3C00
3C00
3FC0
3FC0
0000
0000
0000
0000
0000
0000
0000
0000
ENDCHAR

STARTCHAR char_0x005C
ENCODING 92
SWIDTH 1122 0
DWIDTH 12 0
BBX 12 40 0 -10
BITMAP
0000
0000
0000
0000
0000
0000
0000
0000
7000
7000
7800
7800
7C00
7C00
3E00
3E00
1F00
1F00
0F80
0F80
07C0
07C0
03E0
03E0
01F0
01F0
00F0
00F0
0070
0070
0000
0000
0000
0000
0000
0000
0000
0000
0000
0000
ENDCHAR

STARTCHAR char_0x005D
ENCODING 93
SWIDTH 1122 0
DWIDTH 12 0
BBX 12 40 0 -10
BITMAP
0000
0000
0000
0000
0000
0000
3FC0
3FC0
03C0
03C0
03C0
03C0
03C0
03C0
03C0
03C0
03C0
03C0
03C0
03C0
03C0
03C0
03C0
03C0
03C0
03C0
03C0
03C0
03C0
03C0
3FC0
3FC0
0000
0000
0000
0000
0000
0000
0000
0000
ENDCHAR

STARTCHAR char_0x005E
ENCODING 94
SWIDTH 1122 0
DWIDTH 12 0
BBX 12 40 0 -10
BITMAP
0000
0000
0700
0700
0F80
0F80
1DC0
1DC0
38E0
38E0
0000
0000
0000
0000
0000
0000
0000
0000
0000
0000
0000
0000
0000
0000
0000
0000
0000
0000
0000
0000
0000
0000
0000
0000
0000
0000
0000
0000
0000
0000
ENDCHAR

STARTCHAR char_0x005F
ENCODING 95
SWIDTH 1122 0
DWIDTH 12 0
BBX 12 40 0 -10
BITMAP
0000
0000
0000
0000
0000
0000
0000
0000
0000
0000
0000
0000
0000
0000
0000
0000
0000
0000
0000
0000
0000
0000
0000
0000
0000
0000
0000
0000
0000
0000
0000
0000
0000
0000
0000
0000
0000
0000
0000
0000
ENDCHAR

STARTCHAR char_0x0060
ENCODING 96
SWIDTH 1122 0
DWIDTH 12 0
BBX 12 40 0 -10
BITMAP
0000
0000
0000
0000
0000
0000
0600
0600
0F00
0F00
1F80
1F80
3FC0
3FC0
7FE0
7FE0
7FE0
7FE0
3FC0
3FC0
1F80
1F80
0F00
0F00
0600
0600
0000
0000
0000
0000
0000
0000
0000
0000
0000
0000
0000
0000
0000
0000
ENDCHAR

STARTCHAR char_0x0061
ENCODING 97
SWIDTH 1122 0
DWIDTH 12 0
BBX 12 40 0 -10
BITMAP
F0F0
F0F0
0F00
0F00
0F00
0F00
F0F0
F0F0
F0F0
F0F0
0F00
0F00
0F00
0F00
F0F0
F0F0
F0F0
F0F0
0F00
0F00
0F00
0F00
F0F0
F0F0
F0F0
F0F0
0F00
0F00
0F00
0F00
F0F0
F0F0
F0F0
F0F0
0F00
0F00
0F00
0F00
F0F0
F0F0
ENDCHAR

STARTCHAR char_0x0062
ENCODING 98
SWIDTH 1122 0
DWIDTH 12 0
BBX 12 40 0 -10
BITMAP
0000
0000
0000
0000
0000
0000
0000
0000
79E0
79E0
79E0
79E0
7FE0
7FE0
79E0
79E0
79E0
79E0
0000
0000
1FE0
1FE0
1FE0
1FE0
0780
0780
0780
0780
0780
0780
0000
0000
0000
0000
0000
0000
0000
0000
0000
0000
ENDCHAR

STARTCHAR char_0x0063
ENCODING 99
SWIDTH 1122 0
DWIDTH 12 0
BBX 12 40 0 -10
BITMAP
0000
0000
0000
0000
0000
0000
0000
0000
7F80
7F80
7800
7800
7E00
7E00
7800
7800
7800
7800
0000
0000
1FE0
1FE0
1E00
1E00
1F80
1F80
1E00
1E00
1E00
1E00
0000
0000
0000
0000
0000
0000
0000
0000
0000
0000
ENDCHAR

STARTCHAR char_0x0064
ENCODING 100
SWIDTH 1122 0
DWIDTH 12 0
BBX 12 40 0 -10
BITMAP
0000
0000
0000
0000
0000
0000
0000
0000
3FC0
7FE0
79E0
79E0
7800
7800
79E0
79E0
7FE0
3FC0
0000
0000
7FC0
7FE0
79E0
79E0
7FC0
7FE0
79E0
79E0
79E0
79E0
0000
0000
0000
0000
0000
0000
0000
0000
0000
0000
ENDCHAR

STARTCHAR char_0x0065
ENCODING 101
SWIDTH 1122 0
DWIDTH 12 0
BBX 12 40 0 -10
BITMAP
0000
0000
0000
0000
0000
0000
0000
0000
7800
7800
7800
7800
7800
7800
7800
7800
7F80
7F80
0000
0000
1FE0
1FE0
1E00
1E00
1F80
1F80
1E00
1E00
1E00
1E00
0000
0000
0000
0000
0000
0000
0000
0000
0000
0000
ENDCHAR

STARTCHAR char_0x0066
ENCODING 102
SWIDTH 1122 0
DWIDTH 12 0
BBX 12 40 0 -10
BITMAP
0000
0000
1F80
3FC0
79E0
79E0
79E0
79E0
3FC0
1F80
0000
0000
0000
0000
0000
0000
0000
0000
0000
0000
0000
0000
0000
0000
0000
0000
0000
0000
0000
0000
0000
0000
0000
0000
0000
0000
0000
0000
0000
0000
ENDCHAR

STARTCHAR char_0x0067
ENCODING 103
SWIDTH 1122 0
DWIDTH 12 0
BBX 12 40 0 -10
BITMAP
0000
0000
0000
0000
0000
0000
0000
0000
0F00
0F00
0F00
0F00
3FC0
3FC0
3FC0
3FC0
0F00
0F00
0F00
0F00
0000
0000
3FC0
3FC0
3FC0
3FC0
0000
0000
0000
0000
0000
0000
0000
0000
0000
0000
0000
0000
0000
0000
ENDCHAR

STARTCHAR char_0x0068
ENCODING 104
SWIDTH 1122 0
DWIDTH 12 0
BBX 12 40 0 -10
BITMAP
0000
0000
0000
0000
0000
0000
0000
0000
79E0
79E0
7DE0
7DE0
7FE0
7FE0
7BE0
7BE0
79E0
79E0
0000
0000
7800
7800
7800
7800
7800
7800
7800
7800
7FE0
7FE0
0000
0000
0000
0000
0000
0000
0000
0000
0000
0000
ENDCHAR

STARTCHAR char_0x0069
ENCODING 105
SWIDTH 1122 0
DWIDTH 12 0
BBX 12 40 0 -10
BITMAP
0000
0000
0000
0000
0000
0000
0000
0000
79E0
79E0
79E0
79E0
39C0
39C0
1F80
1F80
0F00
0F00
0000
0000
1FE0
1FE0
0780
0780
0780
0780
0780
0780
0780
0780
0000
0000
0000
0000
0000
0000
0000
0000
0000
0000
ENDCHAR

STARTCHAR char_0x006A
ENCODING 106
SWIDTH 1122 0
DWIDTH 12 0
BBX 12 40 0 -10
BITMAP
0F00
0F00
0F00
0F00
0F00
0F00
0F00
0F00
0F00
0F00
0F00
0F00
0F00
0F00
0F00
0F00
FF00
FF00
FF00
FF00
0000
0000
0000
0000
0000
0000
0000
0000
0000
0000
0000
0000
0000
0000
0000
0000
0000
0000
0000
0000
ENDCHAR

STARTCHAR char_0x006B
ENCODING 107
SWIDTH 1122 0
DWIDTH 12 0
BBX 12 40 0 -10
BITMAP
0000
0000
0000
0000
0000
0000
0000
0000
0000
0000
0000
0000
0000
0000
0000
0000
FF00
FF00
FF00
FF00
0F00
0F00
0F00
0F00
0F00
0F00
0F00
0F00
0F00
0F00
0F00
0F00
0F00
0F00
0F00
0F00
0F00
0F00
0F00
0F00
ENDCHAR

STARTCHAR char_0x006C
ENCODING 108
SWIDTH 1122 0
DWIDTH 12 0
BBX 12 40 0 -10
BITMAP
0000
0000
0000
0000
0000
0000
0000
0000
0000
0000
0000
0000
0000
0000
0000
0000
0FF0
0FF0
0FF0
0FF0
0F00
0F00
0F00
0F00
0F00
0F00
0F00
0F00
0F00
0F00
0F00
0F00
0F00
0F00
0F00
0F00
0F00
0F00
0F00
0F00
ENDCHAR

STARTCHAR char_0x006D
ENCODING 109
SWIDTH 1122 0
DWIDTH 12 0
BBX 12 40 0 -10
BITMAP
0F00
0F00
0F00
0F00
0F00
0F00
0F00
0F00
0F00
0F00
0F00
0F00
0F00
0F00
0F00
0F00
0FF0
0FF0
0FF0
0FF0
0000
0000
0000
0000
0000
0000
0000
0000
0000
0000
0000
0000
0000
0000
0000
0000
0000
0000
0000
0000
ENDCHAR

STARTCHAR char_0x006E
ENCODING 110
SWIDTH 1122 0
DWIDTH 12 0
BBX 12 40 0 -10
BITMAP
0F00
0F00
0F00
0F00
0F00
0F00
0F00
0F00
0F00
0F00
0F00
0F00
0F00
0F00
0F00
0F00
FFF0
FFF0
FFF0
FFF0
0F00
0F00
0F00
0F00
0F00
0F00
0F00
0F00
0F00
0F00
0F00
0F00
0F00
0F00
0F00
0F00
0F00
0F00
0F00
0F00
ENDCHAR

STARTCHAR char_0x006F
ENCODING 111
SWIDTH 1122 0
DWIDTH 12 0
BBX 12 40 0 -10
BITMAP
FFF0
FFF0
FFF0
FFF0
0000
0000
0000
0000
0000
0000
0000
0000
0000
0000
0000
0000
0000
0000
0000
0000
0000
0000
0000
0000
0000
0000
0000
0000
0000
0000
0000
0000
0000
0000
0000
0000
0000
0000
0000
0000
ENDCHAR

STARTCHAR char_0x0070
ENCODING 112
SWIDTH 1122 0
DWIDTH 12 0
BBX 12 40 0 -10
BITMAP
0000
0000
0000
0000
0000
0000
0000
0000
FFF0
FFF0
FFF0
FFF0
0000
0000
0000
0000
0000
0000
0000
0000
0000
0000
0000
0000
0000
0000
0000
0000
0000
0000
0000
0000
0000
0000
0000
0000
0000
0000
0000
0000
ENDCHAR

STARTCHAR char_0x0071
ENCODING 113
SWIDTH 1122 0
DWIDTH 12 0
BBX 12 40 0 -10
BITMAP
0000
0000
0000
0000
0000
0000
0000
0000
0000
0000
0000
0000
0000
0000
0000
0000
FFF0
FFF0
FFF0
FFF0
0000
0000
0000
0000
0000
0000
0000
0000
0000
0000
0000
0000
0000
0000
0000
0000
0000
0000
0000
0000
ENDCHAR

STARTCHAR char_0x0072
ENCODING 114
SWIDTH 1122 0
DWIDTH 12 0
BBX 12 40 0 -10
BITMAP
0000
0000
0000
0000
0000
0000
0000
0000
0000
0000
0000
0000
0000
0000
0000
0000
0000
0000
0000
0000
0000
0000
0000
0000
FFF0
FFF0
FFF0
FFF0
0000
0000
0000
0000
0000
0000
0000
0000
0000
0000
0000
0000
ENDCHAR

STARTCHAR char_0x0073
ENCODING 115
SWIDTH 1122 0
DWIDTH 12 0
BBX 12 40 0 -10
BITMAP
0000
0000
0000
0000
0000
0000
0000
0000
0000
0000
0000
0000
0000
0000
0000
0000
0000
0000
0000
0000
0000
0000
0000
0000
0000
0000
0000
0000
0000
0000
0000
0000
FFF0
FFF0
FFF0
FFF0
0000
0000
0000
0000
ENDCHAR

STARTCHAR char_0x0074
ENCODING 116
SWIDTH 1122 0
DWIDTH 12 0
BBX 12 40 0 -10
BITMAP
0F00
0F00
0F00
0F00
0F00
0F00
0F00
0F00
0F00
0F00
0F00
0F00
0F00
0F00
0F00
0F00
0FF0
0FF0
0FF0
0FF0
0F00
0F00
0F00
0F00
0F00
0F00
0F00
0F00
0F00
0F00
0F00
0F00
0F00
0F00
0F00
0F00
0F00
0F00
0F00
0F00
ENDCHAR

STARTCHAR char_0x0075
ENCODING 117
SWIDTH 1122 0
DWIDTH 12 0
BBX 12 40 0 -10
BITMAP
0F00
0F00
0F00
0F00
0F00
0F00
0F00
0F00
0F00
0F00
0F00
0F00
0F00
0F00
0F00
0F00
FF00
FF00
FF00
FF00
0F00
0F00
0F00
0F00
0F00
0F00
0F00
0F00
0F00
0F00
0F00
0F00
0F00
0F00
0F00
0F00
0F00
0F00
0F00
0F00
ENDCHAR

STARTCHAR char_0x0076
ENCODING 118
SWIDTH 1122 0
DWIDTH 12 0
BBX 12 40 0 -10
BITMAP
0F00
0F00
0F00
0F00
0F00
0F00
0F00
0F00
0F00
0F00
0F00
0F00
0F00
0F00
0F00
0F00
FFF0
FFF0
FFF0
FFF0
0000
0000
0000
0000
0000
0000
0000
0000
0000
0000
0000
0000
0000
0000
0000
0000
0000
0000
0000
0000
ENDCHAR

STARTCHAR char_0x0077
ENCODING 119
SWIDTH 1122 0
DWIDTH 12 0
BBX 12 40 0 -10
BITMAP
0000
0000
0000
0000
0000
0000
0000
0000
0000
0000
0000
0000
0000
0000
0000
0000
FFF0
FFF0
FFF0
FFF0
0F00
0F00
0F00
0F00
0F00
0F00
0F00
0F00
0F00
0F00
0F00
0F00
0F00
0F00
0F00
0F00
0F00
0F00
0F00
0F00
ENDCHAR

STARTCHAR char_0x0078
ENCODING 120
SWIDTH 1122 0
DWIDTH 12 0
BBX 12 40 0 -10
BITMAP
0F00
0F00
0F00
0F00
0F00
0F00
0F00
0F00
0F00
0F00
0F00
0F00
0F00
0F00
0F00
0F00
0F00
0F00
0F00
0F00
0F00
0F00
0F00
0F00
0F00
0F00
0F00
0F00
0F00
0F00
0F00
0F00
0F00
0F00
0F00
0F00
0F00
0F00
0F00
0F00
ENDCHAR

STARTCHAR char_0x0079
ENCODING 121
SWIDTH 1122 0
DWIDTH 12 0
BBX 12 40 0 -10
BITMAP
0000
0000
0000
0000
0000
0000
0000
0000
01E0
03C0
0780
0F00
1E00
3C00
7800
7800
3C00
1E00
0F00
0780
03C0
01E0
7FE0
7FE0
7FE0
7FE0
0000
0000
0000
0000
0000
0000
0000
0000
0000
0000
0000
0000
0000
0000
ENDCHAR

STARTCHAR char_0x007A
ENCODING 122
SWIDTH 1122 0
DWIDTH 12 0
BBX 12 40 0 -10
BITMAP
0000
0000
0000
0000
0000
0000
0000
0000
7800
3C00
1E00
0F00
0780
03C0
01E0
01E0
03C0
0780
0F00
1E00
3C00
7800
7FE0
7FE0
7FE0
7FE0
0000
0000
0000
0000
0000
0000
0000
0000
0000
0000
0000
0000
0000
0000
ENDCHAR

STARTCHAR char_0x007B
ENCODING 123
SWIDTH 1122 0
DWIDTH 12 0
BBX 12 40 0 -10
BITMAP
0000
0000
0000
0000
0000
0000
0000
0000
0000
0000
0000
0000
7FE0
7FE0
19C0
19C0
19C0
19C0
19C0
19C0
19C0
19C0
19C0
19C0
19C0
19C0
19C0
19C0
31C0
61C0
0000
0000
0000
0000
0000
0000
0000
0000
0000
0000
ENDCHAR

STARTCHAR char_0x007C
ENCODING 124
SWIDTH 1122 0
DWIDTH 12 0
BBX 12 40 0 -10
BITMAP
0000
0000
0000
0000
0000
0000
0000
0000
0000
0000
01E0
01E0
7FE0
7FE0
7FE0
7FE0
1E00
1E00
7FE0
7FE0
7FE0
7FE0
7800
7800
0000
0000
0000
0000
0000
0000
0000
0000
0000
0000
0000
0000
0000
0000
0000
0000
ENDCHAR

STARTCHAR char_0x007D
ENCODING 125
SWIDTH 1122 0
DWIDTH 12 0
BBX 12 40 0 -10
BITMAP
0000
0000
0000
0000
0000
0000
0FC0
1FE0
1E60
1E60
1E60
1E60
1E00
1E00
1E00
1E00
1E00
1E00
7F80
7F80
1E00
1E00
1E00
1E00
1E00
1E00
1E60
1E60
7FE0
7BC0
0000
0000
0000
0000
0000
0000
0000
0000
0000
0000
ENDCHAR

STARTCHAR char_0x007E
ENCODING 126
SWIDTH 1122 0
DWIDTH 12 0
BBX 12 40 0 -10
BITMAP
0000
0000
0000
0000
0000
0000
0000
0000
0000
0000
0000
0000
0000
0000
0000
0000
0000
0000
0600
0F00
0F00
0600
0000
0000
0000
0000
0000
0000
0000
0000
0000
0000
0000
0000
0000
0000
0000
0000
0000
0000
ENDCHAR

STARTCHAR char_0x00A1
ENCODING 161
SWIDTH 1122 0
DWIDTH 12 0
BBX 12 40 0 -10
BITMAP
0F00
0F00
0F00
0F00
0F00
0F00
0F00
0F00
0F00
0F00
0F00
0F00
0F00
0F00
0F00
0F00
0F00
0F00
0F00
0F00
0F00
0F00
0F00
0F00
CF00
CF00
CF00
CF00
3F00
3F00
3F00
3F00
0C00
0C00
0000
0000
0000
0000
0000
0000
ENDCHAR

STARTCHAR char_0x00A2
ENCODING 162
SWIDTH 1122 0
DWIDTH 12 0
BBX 12 40 0 -10
BITMAP
0000
0000
0000
0000
0000
0000
0000
0000
0000
0000
0000
0000
0000
0000
0000
0000
0000
0000
0FF0
0FF0
0FF0
0FF0
0F00
0F00
0F00
0F00
0F00
0F00
0F00
0F00
0F00
0F00
0F00
0F00
0F00
0F00
0F00
0F00
0F00
0F00
ENDCHAR

STARTCHAR char_0x00A3
ENCODING 163
SWIDTH 1122 0
DWIDTH 12 0
BBX 12 40 0 -10
BITMAP
0000
0000
0000
0000
0000
0000
0000
0000
0000
0000
0000
0000
0000
0000
0000
0000
0000
0000
FFF0
FFF0
FFF0
FFF0
0000
0000
0000
0000
0000
0000
0000
0000
0000
0000
0000
0000
0000
0000
0000
0000
0000
0000
ENDCHAR

STARTCHAR char_0x00A4
ENCODING 164
SWIDTH 1122 0
DWIDTH 12 0
BBX 12 40 0 -10
BITMAP
0000
0000
03C0
03C0
0FF0
0FF0
0F30
0F30
0F00
0F00
0F00
0F00
0F00
0F00
0F00
0F00
0F00
0F00
0F00
0F00
0F00
0F00
0F00
0F00
0F00
0F00
0F00
0F00
0F00
0F00
0F00
0F00
0F00
0F00
0F00
0F00
0F00
0F00
0F00
0F00
ENDCHAR

STARTCHAR char_0x00A5
ENCODING 165
SWIDTH 1122 0
DWIDTH 12 0
BBX 12 40 0 -10
BITMAP
0F00
0F00
0F00
0F00
0F00
0F00
0F00
0F00
0F00
0F00
0F00
0F00
0F00
0F00
0F00
0F00
0F00
0F00
0F00
0F00
0F00
0F00
0F00
0F00
0F00
0F00
0F00
0F00
0F00
0F00
0F00
0F00
CF00
CF00
FF00
FF00
3C00
3C00
0000
0000
ENDCHAR

STARTCHAR char_0x00A6
ENCODING 166
SWIDTH 1122 0
DWIDTH 12 0
BBX 12 40 0 -10
BITMAP
0F00
0F00
0F00
0F00
0F00
0F00
0F00
0F00
0F00
0F00
0F00
0F00
0F00
0F00
0F00
0F00
0F00
0F00
0F00
0F00
0F00
0F00
0F00
0F00
0F00
0F00
0F00
0F00
0F00
0F00
0F00
0F00
0F00
0F00
0F00
0F00
0F00
0F00
0F00
0F00
ENDCHAR

STARTCHAR char_0x00A7
ENCODING 167
SWIDTH 1122 0
DWIDTH 12 0
BBX 12 40 0 -10
BITMAP
0000
0000
0FF0
0FF0
0FF0
0FF0
0F00
0F00
0F00
0F00
0F00
0F00
0F00
0F00
0F00
0F00
0F00
0F00
0F00
0F00
0F00
0F00
0F00
0F00
0F00
0F00
0F00
0F00
0F00
0F00
0F00
0F00
0F00
0F00
0F00
0F00
0F00
0F00
0F00
0F00
ENDCHAR

STARTCHAR char_0x00A8
ENCODING 168
SWIDTH 1122 0
DWIDTH 12 0
BBX 12 40 0 -10
BITMAP
0F00
0F00
0F00
0F00
0F00
0F00
0F00
0F00
0F00
0F00
0F00
0F00
0F00
0F00
0F00
0F00
0F00
0F00
0F00
0F00
0F00
0F00
0F00
0F00
0F00
0F00
0F00
0F00
0F00
0F00
0F00
0F00
0F00
0F00
0FF0
0FF0
0FF0
0FF0
0000
0000
ENDCHAR

STARTCHAR char_0x00A9
ENCODING 169
SWIDTH 1122 0
DWIDTH 12 0
BBX 12 40 0 -10
BITMAP
0000
0000
FF00
FF00
FF00
FF00
0F00
0F00
0F00
0F00
0F00
0F00
0F00
0F00
0F00
0F00
0F00
0F00
0F00
0F00
0F00
0F00
0F00
0F00
0F00
0F00
0F00
0F00
0F00
0F00
0F00
0F00
0F00
0F00
0F00
0F00
0F00
0F00
0F00
0F00
ENDCHAR

STARTCHAR char_0x00AA
ENCODING 170
SWIDTH 1122 0
DWIDTH 12 0
BBX 12 40 0 -10
BITMAP
0F00
0F00
0F00
0F00
0F00
0F00
0F00
0F00
0F00
0F00
0F00
0F00
0F00
0F00
0F00
0F00
0F00
0F00
0F00
0F00
0F00
0F00
0F00
0F00
0F00
0F00
0F00
0F00
0F00
0F00
0F00
0F00
0F00
0F00
FF00
FF00
FF00
FF00
0000
0000
ENDCHAR

STARTCHAR char_0x00AB
ENCODING 171
SWIDTH 1122 0
DWIDTH 12 0
BBX 12 40 0 -10
BITMAP
0000
0000
03F0
03F0
0FC0
0FC0
0F00
0F00
0F00
0F00
0F00
0F00
0F00
0F00
0F00
0F00
0F00
0F00
0F00
0F00
0F00
0F00
0F00
0F00
0F00
0F00
0F00
0F00
0F00
0F00
0F00
0F00
0F00
0F00
0F00
0F00
0F00
0F00
0F00
0F00
ENDCHAR

STARTCHAR char_0x00AC
ENCODING 172
SWIDTH 1122 0
DWIDTH 12 0
BBX 12 40 0 -10
BITMAP
0F00
0F00
0F00
0F00
0F00
0F00
0F00
0F00
0F00
0F00
0F00
0F00
0F00
0F00
0F00
0F00
0F00
0F00
0F00
0F00
0F00
0F00
0F00
0F00
0F00
0F00
0F00
0F00
0F00
0F00
0F00
0F00
0F00
0F00
0FC0
0FC0
03F0
03F0
0000
0000
ENDCHAR

STARTCHAR char_0x00AD
ENCODING 173
SWIDTH 1122 0
DWIDTH 12 0
BBX 12 40 0 -10
BITMAP
0000
0000
FC00
FC00
3F00
3F00
0F00
0F00
0F00
0F00
0F00
0F00
0F00
0F00
0F00
0F00
0F00
0F00
0F00
0F00
0F00
0F00
0F00
0F00
0F00
0F00
0F00
0F00
0F00
0F00
0F00
0F00
0F00
0F00
0F00
0F00
0F00
0F00
0F00
0F00
ENDCHAR

STARTCHAR char_0x00AE
ENCODING 174
SWIDTH 1122 0
DWIDTH 12 0
BBX 12 40 0 -10
BITMAP
0F00
0F00
0F00
0F00
0F00
0F00
0F00
0F00
0F00
0F00
0F00
0F00
0F00
0F00
0F00
0F00
0F00
0F00
0F00
0F00
0F00
0F00
0F00
0F00
0F00
0F00
0F00
0F00
0F00
0F00
0F00
0F00
0F00
0F00
3F00
3F00
FC00
FC00
0000
0000
ENDCHAR

STARTCHAR char_0x00AF
ENCODING 175
SWIDTH 1122 0
DWIDTH 12 0
BBX 12 40 0 -10
BITMAP
0F00
0F00
0F00
0F00
0F00
0F00
0F00
0F00
0F00
0F00
0F00
0F00
0F00
0F00
0F00
0F00
3C00
3C00
F000
F000
3C00
3C00
0F00
0F00
0F00
0F00
0F00
0F00
0F00
0F00
0F00
0F00
0F00
0F00
0F00
0F00
0F00
0F00
0F00
0F00
ENDCHAR

STARTCHAR char_0x00B0
ENCODING 176
SWIDTH 1122 0
DWIDTH 12 0
BBX 12 40 0 -10
BITMAP
0F00
0F00
0F00
0F00
0F00
0F00
0F00
0F00
0F00
0F00
0F00
0F00
0F00
0F00
0F00
0F00
03C0
03C0
00F0
00F0
03C0
03C0
0F00
0F00
0F00
0F00
0F00
0F00
0F00
0F00
0F00
0F00
0F00
0F00
0F00
0F00
0F00
0F00
0F00
0F00
ENDCHAR

STARTCHAR char_0x00B1
ENCODING 177
SWIDTH 1122 0
DWIDTH 12 0
BBX 12 40 0 -10
BITMAP
0000
0000
0000
0000
0000
0000
0000
0000
0000
0000
0000
0000
0000
0000
0000
0000
0000
0000
FFF0
FFF0
FFF0
FFF0
F000
F000
F000
F000
3C00
3C00
3C00
3C00
0F00
0F00
0F00
0F00
03C0
03C0
03C0
03C0
00F0
00F0
ENDCHAR

STARTCHAR char_0x00B2
ENCODING 178
SWIDTH 1122 0
DWIDTH 12 0
BBX 12 40 0 -10
BITMAP
00F0
00F0
03C0
03C0
03C0
03C0
0F00
0F00
0F00
0F00
3C00
3C00
3C00
3C00
F000
F000
F000
F000
FFF0
FFF0
FFF0
FFF0
0000
0000
0000
0000
0000
0000
0000
0000
0000
0000
0000
0000
0000
0000
0000
0000
0000
0000
ENDCHAR

STARTCHAR char_0x00B3
ENCODING 179
SWIDTH 1122 0
DWIDTH 12 0
BBX 12 40 0 -10
BITMAP
F000
F000
F000
F000
F000
F000
F000
F000
3C00
3C00
3C00
3C00
3C00
3C00
3C00
3C00
0F00
0F00
0F00
0F00
0F00
0F00
0F00
0F00
03C0
03C0
03C0
03C0
03C0
03C0
03C0
03C0
00F0
00F0
00F0
00F0
00F0
00F0
00F0
00F0
ENDCHAR

STARTCHAR char_0x00B4
ENCODING 180
SWIDTH 1122 0
DWIDTH 12 0
BBX 12 40 0 -10
BITMAP
00F0
00F0
00F0
00F0
00F0
00F0
00F0
00F0
03C0
03C0
03C0
03C0
03C0
03C0
03C0
03C0
0F00
0F00
0F00
0F00
0F00
0F00
0F00
0F00
3C00
3C00
3C00
3C00
3C00
3C00
3C00
3C00
F000
F000
F000
F000
F000
F000
F000
F000
ENDCHAR

STARTCHAR char_0x00B5
ENCODING 181
SWIDTH 1122 0
DWIDTH 12 0
BBX 12 40 0 -10
BITMAP
0000
0000
0000
0000
0000
0000
0000
0000
0000
0000
0000
0000
0000
0000
0000
0000
0000
0000
FFC0
FFC0
FFC0
FFC0
03C0
03C0
03C0
03C0
0000
0000
0000
0000
0000
0000
0000
0000
0000
0000
0000
0000
0000
0000
ENDCHAR

STARTCHAR char_0x00B6
ENCODING 182
SWIDTH 1122 0
DWIDTH 12 0
BBX 12 40 0 -10
BITMAP
0000
0000
0000
0000
0000
0000
0000
0000
0000
0000
0000
0000
0000
0000
03C0
03C0
03C0
03C0
FFC0
FFC0
FFC0
FFC0
0000
0000
0000
0000
0000
0000
0000
0000
0000
0000
0000
0000
0000
0000
0000
0000
0000
0000
ENDCHAR

STARTCHAR char_0x00B7
ENCODING 183
SWIDTH 1122 0
DWIDTH 12 0
BBX 12 40 0 -10
BITMAP
F000
F000
F000
F000
F000
F000
F000
F000
3C00
3C00
3C00
3C00
3C00
3C00
3C00
3C00
0F00
0F00
0F00
0F00
0F00
0F00
0F00
0F00
3C00
3C00
3C00
3C00
3C00
3C00
3C00
3C00
F000
F000
F000
F000
F000
F000
F000
F000
ENDCHAR

STARTCHAR char_0x00BC
ENCODING 188
SWIDTH 1122 0
DWIDTH 12 0
BBX 12 40 0 -10
BITMAP
0000
0000
0000
0000
0000
0000
0000
0000
0000
0000
0000
0000
0000
0000
03C0
03C0
0F00
0F00
3C00
3C00
0F00
0F00
03C0
03C0
0000
0000
3FC0
3FC0
3FC0
3FC0
0000
0000
0000
0000
0000
0000
0000
0000
0000
0000
ENDCHAR

STARTCHAR char_0x00BD
ENCODING 189
SWIDTH 1122 0
DWIDTH 12 0
BBX 12 40 0 -10
BITMAP
0000
0000
0000
0000
0000
0000
0000
0000
0000
0000
0000
0000
0000
0000
03C0
03C0
03C0
03C0
FFF0
FFF0
0F00
0F00
0F00
0F00
FFF0
FFF0
3C00
3C00
3C00
3C00
0000
0000
0000
0000
0000
0000
0000
0000
0000
0000
ENDCHAR

STARTCHAR char_0x00BE
ENCODING 190
SWIDTH 1122 0
DWIDTH 12 0
BBX 12 40 0 -10
BITMAP
0000
0000
0000
0000
0000
0000
0000
0000
0000
0000
0000
0000
0000
0000
3C00
3C00
0F00
0F00
03C0
03C0
0F00
0F00
3C00
3C00
0000
0000
3FC0
3FC0
3FC0
3FC0
0000
0000
0000
0000
0000
0000
0000
0000
0000
0000
ENDCHAR

STARTCHAR char_0x00BF
ENCODING 191
SWIDTH 1122 0
DWIDTH 12 0
BBX 12 40 0 -10
BITMAP
0000
0000
0000
0000
0000
0000
0000
0000
0000
0000
03C0
03C0
0FF0
0FF0
0F30
0F30
0F00
0F00
0F00
0F00
0F00
0F00
0F00
0F00
0F00
0F00
0F00
0F00
CF00
CF00
FF00
FF00
3C00
3C00
0000
0000
0000
0000
0000
0000
ENDCHAR

STARTCHAR char_0x00C0
ENCODING 192
SWIDTH 1122 0
DWIDTH 12 0
BBX 12 40 0 -10
BITMAP
0000
0000
0000
0000
0000
0000
0000
0000
0000
0000
0000
0000
0000
0000
0F00
0F00
0F00
0F00
0000
0000
0000
0000
F0F0
F0F0
F0F0
F0F0
0000
0000
0000
0000
0000
0000
0000
0000
0000
0000
0000
0000
0000
0000
ENDCHAR

STARTCHAR char_0x00C1
ENCODING 193
SWIDTH 1122 0
DWIDTH 12 0
BBX 12 40 0 -10
BITMAP
0000
0000
0000
0000
0000
0000
0000
0000
0000
0000
0000
0000
0000
0000
0000
0000
3CF0
3CF0
F3C0
F3C0
F3C0
F3C0
F3C0
F3C0
3CF0
3CF0
0000
0000
0000
0000
0000
0000
0000
0000
0000
0000
0000
0000
0000
0000
ENDCHAR

STARTCHAR char_0x00C2
ENCODING 194
SWIDTH 1122 0
DWIDTH 12 0
BBX 12 40 0 -10
BITMAP
0000
0000
0000
0000
0000
0000
0000
0000
0000
0000
0000
0000
0000
0000
0000
0000
3CC0
3CC0
F330
F330
F330
F330
F330
F330
3CC0
3CC0
0000
0000
0000
0000
0000
0000
0000
0000
0000
0000
0000
0000
0000
0000
ENDCHAR

STARTCHAR char_0x00C3
ENCODING 195
SWIDTH 1122 0
DWIDTH 12 0
BBX 12 40 0 -10
BITMAP
0000
0000
0000
0000
0000
0000
0000
0000
0000
0000
0000
0000
0F00
0F00
0F00
0F00
0000
0000
FFF0
FFF0
FFF0
FFF0
0000
0000
0F00
0F00
0F00
0F00
0000
0000
0000
0000
0000
0000
0000
0000
0000
0000
0000
0000
ENDCHAR

STARTCHAR char_0x00C4
ENCODING 196
SWIDTH 1122 0
DWIDTH 12 0
BBX 12 40 0 -10
BITMAP
0000
0000
0000
0000
0000
0000
0000
0000
0000
0000
0000
0000
0F00
0F00
0F00
0F00
3CC0
3CC0
3CC0
3CC0
3CC0
3CC0
F030
F030
F030
F030
FFF0
FFF0
0000
0000
0000
0000
0000
0000
0000
0000
0000
0000
0000
0000
ENDCHAR

STARTCHAR char_0x00C5
ENCODING 197
SWIDTH 1122 0
DWIDTH 12 0
BBX 12 40 0 -10
BITMAP
0000
0000
0000
0000
0000
0000
0000
0000
0000
0000
0000
0000
FFF0
FFF0
F030
F030
F030
F030
3CC0
3CC0
3CC0
3CC0
3CC0
3CC0
0F00
0F00
0F00
0F00
0000
0000
0000
0000
0000
0000
0000
0000
0000
0000
0000
0000
ENDCHAR

STARTCHAR char_0x00C6
ENCODING 198
SWIDTH 1122 0
DWIDTH 12 0
BBX 12 40 0 -10
BITMAP
0000
0000
0000
0000
0000
0000
0000
0000
0000
0000
0000
0000
3FC0
3FC0
0F00
0F00
3FC0
3FC0
C030
C030
3FC0
3FC0
0F00
0F00
0F00
0F00
3FC0
3FC0
0000
0000
0000
0000
0000
0000
0000
0000
0000
0000
0000
0000
ENDCHAR

STARTCHAR char_0x00C7
ENCODING 199
SWIDTH 1122 0
DWIDTH 12 0
BBX 12 40 0 -10
BITMAP
0000
0000
0000
0000
0000
0000
0000
0000
0000
0000
0000
0000
FFF0
FFF0
3C30
3C30
3C00
3C00
3C00
3C00
3C00
3C00
3C00
3C00
3C00
3C00
FF00
FF00
0000
0000
0000
0000
0000
0000
0000
0000
0000
0000
0000
0000
ENDCHAR

STARTCHAR char_0x00C8
ENCODING 200
SWIDTH 1122 0
DWIDTH 12 0
BBX 12 40 0 -10
BITMAP
0000
0000
0000
0000
0000
0000
0000
0000
0000
0000
0000
0000
0000
0000
0000
0000
0F30
0F30
3FF0
3FF0
33C0
33C0
0000
0000
0000
0000
0000
0000
0000
0000
0000
0000
0000
0000
0000
0000
0000
0000
0000
0000
ENDCHAR

STARTCHAR char_0x00C9
ENCODING 201
SWIDTH 1122 0
DWIDTH 12 0
BBX 12 40 0 -10
BITMAP
0000
0000
0000
0000
0000
0000
0000
0000
0000
0000
0000
0000
0000
0000
0000
0000
0F30
0F30
3FF0
3FF0
33C0
33C0
0000
0000
3FF0
3FF0
3FF0
3FF0
0000
0000
0000
0000
0000
0000
0000
0000
0000
0000
0000
0000
ENDCHAR

STARTCHAR char_0x00CA
ENCODING 202
SWIDTH 1122 0
DWIDTH 12 0
BBX 12 40 0 -10
BITMAP
0000
0000
0000
0000
0000
0000
0000
0000
0000
0000
0000
0000
0FC0
0FC0
3C30
3C30
3C30
3C30
3FF0
3FF0
3C30
3C30
3C30
3C30
3C30
3C30
0FC0
0FC0
0000
0000
0000
0000
0000
0000
0000
0000
0000
0000
0000
0000
ENDCHAR

STARTCHAR char_0x00CB
ENCODING 203
SWIDTH 1122 0
DWIDTH 12 0
BBX 12 40 0 -10
BITMAP
0000
0000
0000
0000
0000
0000
0000
0000
0000
0000
0000
0000
0000
0000
0000
0000
3CF0
3CF0
3FF0
3FF0
0FC0
0FC0
3FF0
3FF0
3CF0
3CF0
0000
0000
0000
0000
0000
0000
0000
0000
0000
0000
0000
0000
0000
0000
ENDCHAR

STARTCHAR char_0x00CC
ENCODING 204
SWIDTH 1122 0
DWIDTH 12 0
BBX 12 40 0 -10
BITMAP
0000
0000
0000
0000
0000
0000
0000
0000
0000
0000
0000
0000
0300
0300
0300
0300
0FC0
0FC0
0FC0
0FC0
0CC0
0CC0
3CF0
3CF0
3CF0
3CF0
FCF0
FCF0
0000
0000
0000
0000
0000
0000
0000
0000
0000
0000
0000
0000
ENDCHAR

STARTCHAR char_0x00CD
ENCODING 205
SWIDTH 1122 0
DWIDTH 12 0
BBX 12 40 0 -10
BITMAP
0000
0000
0000
0000
0000
0000
0000
0000
0000
0000
0000
0000
0000
0000
0000
0000
30C0
30C0
FFF0
FFF0
F0F0
F0F0
FFF0
FFF0
30C0
30C0
0000
0000
0000
0000
0000
0000
0000
0000
0000
0000
0000
0000
0000
0000
ENDCHAR

STARTCHAR char_0x00CE
ENCODING 206
SWIDTH 1122 0
DWIDTH 12 0
BBX 12 40 0 -10
BITMAP
0000
0000
0000
0000
0000
0000
0000
0000
0000
0000
0000
0000
0000
0000
0300
0300
FFC0
FFC0
FFF0
FFF0
00F0
00F0
FFF0
FFF0
FFC0
FFC0
0300
0300
0000
0000
0000
0000
0000
0000
0000
0000
0000
0000
0000
0000
ENDCHAR

STARTCHAR char_0x00CF
ENCODING 207
SWIDTH 1122 0
DWIDTH 12 0
BBX 12 40 0 -10
BITMAP
0000
0000
0000
0000
0000
0000
0000
0000
0000
0000
0000
0000
3FF0
3FF0
3FF0
3FF0
0000
0000
3FF0
3FF0
3FF0
3FF0
0000
0000
3FF0
3FF0
3FF0
3FF0
0000
0000
0000
0000
0000
0000
0000
0000
0000
0000
0000
0000
ENDCHAR

STARTCHAR char_0x00D0
ENCODING 208
SWIDTH 1122 0
DWIDTH 12 0
BBX 12 40 0 -10
BITMAP
0000
0000
0000
0000
0000
0000
0000
0000
0000
0000
0000
0000
FFF0
FFF0
3CF0
3CF0
3CF0
3CF0
3CF0
3CF0
3CF0
3CF0
3CF0
3CF0
3CF0
3CF0
3CF0
3CF0
0000
0000
0000
0000
0000
0000
0000
0000
0000
0000
0000
0000
ENDCHAR

STARTCHAR char_0x00D1
ENCODING 209
SWIDTH 1122 0
DWIDTH 12 0
BBX 12 40 0 -10
BITMAP
0000
0000
0000
0000
0000
0000
0000
0000
0000
0000
0000
0000
F330
F330
F330
F330
F330
F330
3FC0
3FC0
0F00
0F00
0F00
0F00
0F00
0F00
0F00
0F00
0000
0000
0000
0000
0000
0000
0000
0000
0000
0000
0000
0000
ENDCHAR

STARTCHAR char_0x00D3
ENCODING 211
SWIDTH 1122 0
DWIDTH 12 0
BBX 12 40 0 -10
BITMAP
0000
0000
0000
0000
0000
0000
0000
0000
0000
0000
3FF0
3FF0
3FF0
3FF0
3C30
3C30
0F00
0F00
03C0
03C0
03C0
03C0
0F00
0F00
3C30
3C30
3FF0
3FF0
3FF0
3FF0
0000
0000
0000
0000
0000
0000
0000
0000
0000
0000
ENDCHAR

STARTCHAR char_0x00D6
ENCODING 214
SWIDTH 1122 0
DWIDTH 12 0
BBX 12 40 0 -10
BITMAP
0000
0000
0000
0000
0000
0000
0000
0000
0000
0000
03F0
03F0
03F0
03F0
03C0
03C0
03C0
03C0
03C0
03C0
03C0
03C0
F3C0
F3C0
3FC0
3FC0
0F00
0F00
0000
0000
0000
0000
0000
0000
0000
0000
0000
0000
0000
0000
ENDCHAR

STARTCHAR char_0x00D7
ENCODING 215
SWIDTH 1122 0
DWIDTH 12 0
BBX 12 40 0 -10
BITMAP
0000
0000
0000
0000
0000
0000
0000
0000
0000
0000
0000
0000
0FC0
0FC0
3CF0
3CF0
3CF0
3CF0
3CF0
3CF0
3CF0
3CF0
3CF0
3CF0
0CC0
0CC0
3CF0
3CF0
0000
0000
0000
0000
0000
0000
0000
0000
0000
0000
0000
0000
ENDCHAR

STARTCHAR char_0x00D8
ENCODING 216
SWIDTH 1122 0
DWIDTH 12 0
BBX 12 40 0 -10
BITMAP
0000
0000
0000
0000
0000
0000
0000
0000
0000
0000
0000
0000
3FF0
3FF0
3FF0
3FF0
0000
0000
0FC0
0FC0
0CC0
0CC0
0000
0000
3FF0
3FF0
3FF0
3FF0
0000
0000
0000
0000
0000
0000
0000
0000
0000
0000
0000
0000
ENDCHAR

STARTCHAR char_0x00D9
ENCODING 217
SWIDTH 1122 0
DWIDTH 12 0
BBX 12 40 0 -10
BITMAP
0000
0000
0000
0000
0000
0000
0000
0000
0000
0000
0000
0000
C030
C030
F0F0
F0F0
F0F0
F0F0
3FC0
3FC0
0F00
0F00
0F00
0F00
0F00
0F00
0F00
0F00
0000
0000
0000
0000
0000
0000
0000
0000
0000
0000
0000
0000
ENDCHAR

STARTCHAR char_0x00DA
ENCODING 218
SWIDTH 1122 0
DWIDTH 12 0
BBX 12 40 0 -10
BITMAP
0000
0000
0000
0000
0000
0000
0000
0000
0000
0000
0000
0000
0000
0000
0FF0
0FF0
3FF0
3FF0
F000
F000
C000
C000
F000
F000
3FF0
3FF0
0FF0
0FF0
0000
0000
0000
0000
0000
0000
0000
0000
0000
0000
0000
0000
ENDCHAR

STARTCHAR char_0x00DB
ENCODING 219
SWIDTH 1122 0
DWIDTH 12 0
BBX 12 40 0 -10
BITMAP
0000
0000
0000
0000
0000
0000
0000
0000
0000
0000
0000
0000
0000
0000
FF00
FF00
FFC0
FFC0
00F0
00F0
0030
0030
00F0
00F0
FFC0
FFC0
FF00
FF00
0000
0000
0000
0000
0000
0000
0000
0000
0000
0000
0000
0000
ENDCHAR

STARTCHAR char_0x00DC
ENCODING 220
SWIDTH 1122 0
DWIDTH 12 0
BBX 12 40 0 -10
BITMAP
0000
0000
0000
0000
0000
0000
0000
0000
0000
0000
0000
0000
0000
0000
3FC0
3FC0
F0F0
F0F0
F0F0
F0F0
F0F0
F0F0
F0F0
F0F0
F0F0
F0F0
F0F0
F0F0
0000
0000
0000
0000
0000
0000
0000
0000
0000
0000
0000
0000
ENDCHAR

STARTCHAR char_0x00DD
ENCODING 221
SWIDTH 1122 0
DWIDTH 12 0
BBX 12 40 0 -10
BITMAP
0000
0000
0000
0000
0000
0000
0000
0000
0000
0000
0000
0000
0000
0000
F0F0
F0F0
F0F0
F0F0
F0F0
F0F0
F0F0
F0F0
F0F0
F0F0
F0F0
F0F0
3FC0
3FC0
0000
0000
0000
0000
0000
0000
0000
0000
0000
0000
0000
0000
ENDCHAR

STARTCHAR char_0x00DE
ENCODING 222
SWIDTH 1122 0
DWIDTH 12 0
BBX 12 40 0 -10
BITMAP
0000
0000
0000
0000
0000
0000
0000
0000
0000
0000
0000
0000
0F00
0F00
0F00
0F00
3CC0
3CC0
3CC0
3CC0
3CC0
3CC0
F030
F030
F030
F030
F030
F030
0000
0000
0000
0000
0000
0000
0000
0000
0000
0000
0000
0000
ENDCHAR

STARTCHAR char_0x00DF
ENCODING 223
SWIDTH 1122 0
DWIDTH 12 0
BBX 12 40 0 -10
BITMAP
0000
0000
0000
0000
0000
0000
0000
0000
0000
0000
0000
0000
F030
F030
F030
F030
F030
F030
3CC0
3CC0
3CC0
3CC0
3CC0
3CC0
0F00
0F00
0F00
0F00
0000
0000
0000
0000
0000
0000
0000
0000
0000
0000
0000
0000
ENDCHAR

STARTCHAR char_0x00E0
ENCODING 224
SWIDTH 1122 0
DWIDTH 12 0
BBX 12 40 0 -10
BITMAP
0000
0000
0000
0000
0000
0000
0000
0000
0000
0000
0000
0000
0000
0000
0000
0000
0000
0000
3FF0
3FF0
3FF0
3FF0
00F0
00F0
0030
0030
0000
0000
0000
0000
0000
0000
0000
0000
0000
0000
0000
0000
0000
0000
ENDCHAR

STARTCHAR char_0x00E1
ENCODING 225
SWIDTH 1122 0
DWIDTH 12 0
BBX 12 40 0 -10
BITMAP
0000
0000
0000
0000
0000
0000
0000
0000
0000
0000
0000
0000
0000
0000
0000
0000
0F30
0F30
3CF0
3CF0
3CC0
3CC0
3CC0
3CC0
3CF0
3CF0
0F30
0F30
0000
0000
0000
0000
0000
0000
0000
0000
0000
0000
0000
0000
ENDCHAR

STARTCHAR char_0x00E2
ENCODING 226
SWIDTH 1122 0
DWIDTH 12 0
BBX 12 40 0 -10
BITMAP
0000
0000
0000
0000
0000
0000
0000
0000
0000
0000
0000
0000
0300
0300
0CC0
0CC0
3CF0
3CF0
3CF0
3CF0
3FC0
3FC0
3CF0
3CF0
3CF0
3CF0
3CF0
3CF0
33C0
33C0
3000
3000
0000
0000
0000
0000
0000
0000
0000
0000
ENDCHAR

STARTCHAR char_0x00E3
ENCODING 227
SWIDTH 1122 0
DWIDTH 12 0
BBX 12 40 0 -10
BITMAP
0000
0000
0000
0000
0000
0000
0000
0000
0000
0000
0000
0000
0000
0000
3030
3030
3CF0
3CF0
0FC0
0FC0
0300
0300
0FC0
0FC0
0FC0
0FC0
3CF0
3CF0
3030
3030
0000
0000
0000
0000
0000
0000
0000
0000
0000
0000
ENDCHAR

STARTCHAR char_0x00E4
ENCODING 228
SWIDTH 1122 0
DWIDTH 12 0
BBX 12 40 0 -10
BITMAP
0000
0000
0000
0000
0000
0000
0000
0000
0000
0000
0000
0000
03F0
03F0
0F00
0F00
03C0
03C0
0FC0
0FC0
3CF0
3CF0
3CF0
3CF0
3CF0
3CF0
0FC0
0FC0
0000
0000
0000
0000
0000
0000
0000
0000
0000
0000
0000
0000
ENDCHAR

STARTCHAR char_0x00E5
ENCODING 229
SWIDTH 1122 0
DWIDTH 12 0
BBX 12 40 0 -10
BITMAP
0000
0000
0000
0000
0000
0000
0000
0000
0000
0000
0000
0000
0000
0000
0000
0000
0FF0
0FF0
3F00
3F00
0FF0
0FF0
3C00
3C00
3F00
3F00
0FF0
0FF0
0000
0000
0000
0000
0000
0000
0000
0000
0000
0000
0000
0000
ENDCHAR

STARTCHAR char_0x00E6
ENCODING 230
SWIDTH 1122 0
DWIDTH 12 0
BBX 12 40 0 -10
BITMAP
0000
0000
0000
0000
0000
0000
0000
0000
0000
0000
0000
0000
0000
0000
0F00
0F00
3FC0
3FC0
F330
F330
F330
F330
F330
F330
F330
F330
3FC0
3FC0
0F00
0F00
0000
0000
0000
0000
0000
0000
0000
0000
0000
0000
ENDCHAR

STARTCHAR char_0x00E7
ENCODING 231
SWIDTH 1122 0
DWIDTH 12 0
BBX 12 40 0 -10
BITMAP
0000
0000
0000
0000
0000
0000
0000
0000
0000
0000
0000
0000
0000
0000
0000
0000
3030
3030
FCF0
FCF0
0CC0
0CC0
0FC0
0FC0
0F00
0F00
0F00
0F00
0F00
0F00
0F00
0F00
0000
0000
0000
0000
0000
0000
0000
0000
ENDCHAR

STARTCHAR char_0x00E8
ENCODING 232
SWIDTH 1122 0
DWIDTH 12 0
BBX 12 40 0 -10
BITMAP
0000
0000
0000
0000
0000
0000
0000
0000
0000
0000
0000
0000
0000
0000
0000
0000
F3C0
F3C0
3CF0
3CF0
3CF0
3CF0
3CF0
3CF0
3CF0
3CF0
3CF0
3CF0
00F0
00F0
00F0
00F0
0000
0000
0000
0000
0000
0000
0000
0000
ENDCHAR

STARTCHAR char_0x00E9
ENCODING 233
SWIDTH 1122 0
DWIDTH 12 0
BBX 12 40 0 -10
BITMAP
0000
0000
0000
0000
0000
0000
0000
0000
0000
0000
0000
0000
0000
0000
0000
0000
3F00
3F00
0F00
0F00
0F00
0F00
0F00
0F00
0F00
0F00
0FC0
0FC0
0000
0000
0000
0000
0000
0000
0000
0000
0000
0000
0000
0000
ENDCHAR

STARTCHAR char_0x00EA
ENCODING 234
SWIDTH 1122 0
DWIDTH 12 0
BBX 12 40 0 -10
BITMAP
0000
0000
0000
0000
0000
0000
0000
0000
0000
0000
0000
0000
0000
0000
0FC0
0FC0
3C30
3C30
3C30
3C30
3FF0
3FF0
3C30
3C30
3C30
3C30
0FC0
0FC0
0000
0000
0000
0000
0000
0000
0000
0000
0000
0000
0000
0000
ENDCHAR

STARTCHAR char_0x00EB
ENCODING 235
SWIDTH 1122 0
DWIDTH 12 0
BBX 12 40 0 -10
BITMAP
0000
0000
0000
0000
0000
0000
0000
0000
0000
0000
0000
0000
0000
0000
0000
0000
3CF0
3CF0
3CC0
3CC0
3F00
3F00
3CC0
3CC0
3CC0
3CC0
3CF0
3CF0
0000
0000
0000
0000
0000
0000
0000
0000
0000
0000
0000
0000
ENDCHAR

STARTCHAR char_0x00EC
ENCODING 236
SWIDTH 1122 0
DWIDTH 12 0
BBX 12 40 0 -10
BITMAP
0000
0000
0000
0000
0000
0000
0000
0000
0000
0000
0000
0000
F000
F000
3C00
3C00
3C00
3C00
0F00
0F00
0F00
0F00
3FC0
3FC0
F3C0
F3C0
C0F0
C0F0
0000
0000
0000
0000
0000
0000
0000
0000
0000
0000
0000
0000
ENDCHAR

STARTCHAR char_0x00EE
ENCODING 238
SWIDTH 1122 0
DWIDTH 12 0
BBX 12 40 0 -10
BITMAP
0000
0000
0000
0000
0000
0000
0000
0000
0000
0000
0000
0000
0000
0000
0000
0000
F0F0
F0F0
F0F0
F0F0
F0F0
F0F0
3CC0
3CC0
3CC0
3CC0
0F00
0F00
0000
0000
0000
0000
0000
0000
0000
0000
0000
0000
0000
0000
ENDCHAR

STARTCHAR char_0x00EF
ENCODING 239
SWIDTH 1122 0
DWIDTH 12 0
BBX 12 40 0 -10
BITMAP
0000
0000
0000
0000
0000
0000
0000
0000
0000
0000
0000
0000
0F00
0F00
03C0
03C0
00C0
00C0
0FF0
0FF0
3C30
3C30
3C30
3C30
3C30
3C30
0FC0
0FC0
0000
0000
0000
0000
0000
0000
0000
0000
0000
0000
0000
0000
ENDCHAR

STARTCHAR char_0x00F0
ENCODING 240
SWIDTH 1122 0
DWIDTH 12 0
BBX 12 40 0 -10
BITMAP
0000
0000
0000
0000
0000
0000
0000
0000
0000
0000
0000
0000
0000
0000
0000
0000
3FF0
3FF0
FCC0
FCC0
3CC0
3CC0
3CC0
3CC0
3CC0
3CC0
3CC0
3CC0
0000
0000
0000
0000
0000
0000
0000
0000
0000
0000
0000
0000
ENDCHAR

STARTCHAR char_0x00F1
ENCODING 241
SWIDTH 1122 0
DWIDTH 12 0
BBX 12 40 0 -10
BITMAP
0000
0000
0000
0000
0000
0000
0000
0000
0000
0000
0000
0000
0000
0000
0300
0300
F330
F330
F330
F330
F330
F330
F330
F330
F330
F330
3FC0
3FC0
0300
0300
0300
0300
0000
0000
0000
0000
0000
0000
0000
0000
ENDCHAR

STARTCHAR char_0x00F2
ENCODING 242
SWIDTH 1122 0
DWIDTH 12 0
BBX 12 40 0 -10
BITMAP
0000
0000
0000
0000
0000
0000
0000
0000
0000
0000
0000
0000
0000
0000
0000
0000
0FC0
0FC0
3C30
3C30
3C30
3C30
3C30
3C30
3C30
3C30
3FC0
3FC0
3C00
3C00
3C00
3C00
3C00
3C00
0000
0000
0000
0000
0000
0000
ENDCHAR

STARTCHAR char_0x00F3
ENCODING 243
SWIDTH 1122 0
DWIDTH 12 0
BBX 12 40 0 -10
BITMAP
0000
0000
0000
0000
0000
0000
0000
0000
0000
0000
0000
0000
0000
0000
0000
0000
0FF0
0FF0
3CC0
3CC0
3CC0
3CC0
3CC0
3CC0
3CC0
3CC0
0F00
0F00
0000
0000
0000
0000
0000
0000
0000
0000
0000
0000
0000
0000
ENDCHAR

STARTCHAR char_0x00F4
ENCODING 244
SWIDTH 1122 0
DWIDTH 12 0
BBX 12 40 0 -10
BITMAP
0000
0000
0000
0000
0000
0000
0000
0000
0000
0000
0000
0000
0000
0000
0000
0000
3FF0
3FF0
CF00
CF00
0F00
0F00
0F00
0F00
0F00
0F00
03F0
03F0
0000
0000
0000
0000
0000
0000
0000
0000
0000
0000
0000
0000
ENDCHAR

STARTCHAR char_0x00F6
ENCODING 246
SWIDTH 1122 0
DWIDTH 12 0
BBX 12 40 0 -10
BITMAP
0000
0000
0000
0000
0000
0000
0000
0000
0000
0000
0000
0000
03C0
03C0
0F30
0F30
0F30
0F30
0F00
0F00
3FC0
3FC0
0F00
0F00
0F00
0F00
0F00
0F00
CF00
CF00
FF00
FF00
3C00
3C00
0000
0000
0000
0000
0000
0000
ENDCHAR

STARTCHAR char_0x00F7
ENCODING 247
SWIDTH 1122 0
DWIDTH 12 0
BBX 12 40 0 -10
BITMAP
0000
0000
0000
0000
0000
0000
0000
0000
0000
0000
0000
0000
0000
0000
0000
0000
F030
F030
F030
F030
F330
F330
F330
F330
F330
F330
3CC0
3CC0
0000
0000
0000
0000
0000
0000
0000
0000
0000
0000
0000
0000
ENDCHAR

STARTCHAR char_0x00F8
ENCODING 248
SWIDTH 1122 0
DWIDTH 12 0
BBX 12 40 0 -10
BITMAP
0000
0000
0000
0000
0000
0000
0000
0000
0000
0000
0000
0000
3FF0
3FF0
0F00
0F00
3C00
3C00
0FC0
0FC0
3C00
3C00
3C00
3C00
3C00
3C00
0FC0
0FC0
00F0
00F0
03C0
03C0
0000
0000
0000
0000
0000
0000
0000
0000
ENDCHAR

STARTCHAR char_0x00F9
ENCODING 249
SWIDTH 1122 0
DWIDTH 12 0
BBX 12 40 0 -10
BITMAP
0000
0000
0000
0000
0000
0000
0000
0000
0000
0000
0000
0000
0000
0000
0000
0000
3CC0
3CC0
3C30
3C30
3C30
3C30
3C30
3C30
3CF0
3CF0
0FC0
0FC0
0000
0000
0000
0000
0000
0000
0000
0000
0000
0000
0000
0000
ENDCHAR

STARTCHAR char_0x00FA
ENCODING 250
SWIDTH 1122 0
DWIDTH 12 0
BBX 12 40 0 -10
BITMAP
0000
0000
0000
0000
0000
0000
0000
0000
0000
0000
0000
0000
0FF0
0FF0
03C0
03C0
0F00
0F00
0F00
0F00
3C00
3C00
3C00
3C00
3C00
3C00
0FC0
0FC0
00F0
00F0
03C0
03C0
0000
0000
0000
0000
0000
0000
0000
0000
ENDCHAR

STARTCHAR char_0x00FB
ENCODING 251
SWIDTH 1122 0
DWIDTH 12 0
BBX 12 40 0 -10
BITMAP
0000
0000
0000
0000
0000
0000
0000
0000
0000
0000
0000
0000
0000
0000
0C00
0C00
3000
3000
FFF0
FFF0
FFF0
FFF0
3000
3000
0C00
0C00
0000
0000
0000
0000
0000
0000
0000
0000
0000
0000
0000
0000
0000
0000
ENDCHAR

STARTCHAR char_0x00FC
ENCODING 252
SWIDTH 1122 0
DWIDTH 12 0
BBX 12 40 0 -10
BITMAP
0000
0000
0000
0000
0000
0000
0000
0000
0000
0000
0000
0000
0000
0000
0F00
0F00
3FC0
3FC0
CF30
CF30
0F00
0F00
0F00
0F00
0F00
0F00
0F00
0F00
0000
0000
0000
0000
0000
0000
0000
0000
0000
0000
0000
0000
ENDCHAR

STARTCHAR char_0x00FD
ENCODING 253
SWIDTH 1122 0
DWIDTH 12 0
BBX 12 40 0 -10
BITMAP
0000
0000
0000
0000
0000
0000
0000
0000
0000
0000
0000
0000
0000
0000
0300
0300
00C0
00C0
FFF0
FFF0
FFF0
FFF0
00C0
00C0
0300
0300
0000
0000
0000
0000
0000
0000
0000
0000
0000
0000
0000
0000
0000
0000
ENDCHAR

STARTCHAR char_0x00FE
ENCODING 254
SWIDTH 1122 0
DWIDTH 12 0
BBX 12 40 0 -10
BITMAP
0000
0000
0000
0000
0000
0000
0000
0000
0000
0000
0000
0000
0000
0000
0F00
0F00
0F00
0F00
0F00
0F00
0F00
0F00
CF30
CF30
3FC0
3FC0
0F00
0F00
0000
0000
0000
0000
0000
0000
0000
0000
0000
0000
0000
0000
ENDCHAR
ENDFONT
